<svg xmlns="http://www.w3.org/2000/svg" width="1132" height="926" viewBox="0 0 1132 926">
<g>
<path d="M 762.50 650.53 C751.60,652.42 729.03,653.20 719.67,652.02 C682.22,647.27 651.97,633.43 627.48,609.84 C606.67,589.80 593.67,566.34 588.34,539.21 C586.01,527.35 586.03,503.40 588.39,492.67 C600.46,437.80 644.15,396.81 703.90,384.32 C714.80,382.03 718.99,381.67 735.00,381.63 C748.41,381.59 756.12,382.06 763.00,383.31 C797.74,389.65 825.80,404.36 848.50,428.15 C866.19,446.69 877.27,467.46 882.65,492.20 C885.32,504.48 885.12,530.14 882.25,543.07 C875.94,571.43 859.20,598.48 836.50,616.95 C815.21,634.28 789.82,645.80 762.50,650.53 Z" fill="rgb(40,87,135)"/>
<path d="M 763.00 906.01 C747.45,907.15 716.86,907.10 703.00,905.91 C645.53,901.00 597.67,887.77 549.00,863.35 C490.73,834.10 442.27,792.07 406.71,739.94 C398.19,727.45 385.66,705.70 380.54,694.50 C358.73,646.86 349.80,602.98 353.31,560.75 C353.88,553.89 353.80,551.00 353.03,551.00 C352.43,551.00 336.77,563.51 318.22,578.80 C280.99,609.49 260.95,625.92 251.50,633.50 C248.07,636.25 231.82,649.56 215.38,663.07 C198.95,676.58 182.76,689.86 179.41,692.57 C176.06,695.28 164.72,704.59 154.21,713.26 C132.69,731.02 125.93,735.78 115.49,740.54 C94.11,750.28 72.55,752.21 54.47,745.99 C26.18,736.26 10.26,711.35 13.95,682.58 C16.82,660.19 27.51,640.89 45.96,624.79 C49.56,621.65 57.22,615.46 63.00,611.04 C68.78,606.62 82.28,596.30 93.00,588.11 C124.39,564.13 154.82,540.86 181.39,520.50 C205.45,502.06 237.59,477.49 257.00,462.69 C280.83,444.52 297.72,431.61 312.50,420.26 C321.30,413.51 340.42,398.87 355.00,387.74 C391.03,360.23 394.64,357.46 409.00,346.42 C415.88,341.13 427.72,332.08 435.33,326.31 C442.94,320.55 448.90,315.57 448.59,315.26 C448.28,314.95 396.16,314.65 332.76,314.60 L 217.50 314.50 L 209.53 312.24 C193.85,307.78 179.77,296.35 175.01,284.22 C172.23,277.14 171.34,266.00 172.98,258.85 C178.50,234.77 203.76,212.64 232.05,207.09 C241.01,205.33 253.01,205.20 464.49,204.58 C587.13,204.22 687.83,203.57 688.26,203.14 C688.69,202.71 681.29,196.09 671.82,188.43 C662.35,180.77 649.14,170.00 642.46,164.50 C635.78,159.00 625.88,150.90 620.44,146.50 C541.06,82.23 539.39,80.76 535.06,71.52 C531.48,63.88 530.78,59.04 532.08,50.99 C534.99,32.89 551.96,17.44 575.90,11.06 C583.19,9.12 586.18,8.87 598.40,9.21 C610.55,9.54 613.58,9.97 620.33,12.31 C629.48,15.50 635.62,19.26 650.00,30.48 C655.78,34.99 686.15,58.36 717.50,82.43 C748.85,106.49 778.78,129.47 784.00,133.50 C812.59,155.57 825.24,165.30 875.00,203.49 C1001.63,300.70 996.70,296.77 1016.30,315.93 C1045.80,344.77 1066.40,372.88 1084.49,408.98 C1107.85,455.61 1119.00,502.95 1119.00,555.57 C1119.00,576.74 1117.99,589.39 1114.86,607.50 C1102.64,678.26 1070.44,739.64 1018.05,792.06 C987.50,822.62 957.00,844.44 917.00,864.34 C868.50,888.47 818.78,901.93 763.00,906.01 ZM 716.50 739.42 C727.30,740.46 761.99,739.03 773.76,737.06 C829.55,727.69 871.63,706.54 909.03,669.06 C943.87,634.14 963.30,594.32 968.60,546.94 C974.33,495.77 958.17,442.55 924.15,400.52 C891.93,360.72 844.02,331.60 792.50,320.50 C699.21,300.39 605.81,330.62 547.89,399.67 C532.90,417.54 517.88,444.24 511.13,465.00 C487.28,538.42 505.90,613.56 561.90,669.93 C601.75,710.04 653.57,733.33 716.50,739.42 Z" fill="rgb(233,117,0)"/>
<path d="M 0.00 463.00 L 0.00 0.00 L 566.00 0.00 L 1132.00 0.00 L 1132.00 463.00 L 1132.00 926.00 L 566.00 926.00 L 0.00 926.00 L 0.00 463.00 ZM 763.00 906.01 C818.78,901.93 868.50,888.47 917.00,864.34 C957.00,844.44 987.50,822.62 1018.05,792.06 C1070.44,739.64 1102.64,678.26 1114.86,607.50 C1117.99,589.39 1119.00,576.74 1119.00,555.57 C1119.00,502.95 1107.85,455.61 1084.49,408.98 C1066.40,372.88 1045.80,344.77 1016.30,315.93 C996.70,296.77 1001.63,300.70 875.00,203.49 C825.24,165.30 812.59,155.57 784.00,133.50 C778.78,129.47 748.85,106.49 717.50,82.43 C686.15,58.36 655.78,34.99 650.00,30.48 C635.62,19.26 629.48,15.50 620.33,12.31 C613.58,9.97 610.55,9.54 598.40,9.21 C586.18,8.87 583.19,9.12 575.90,11.06 C551.96,17.44 534.99,32.89 532.08,50.99 C530.78,59.04 531.48,63.88 535.06,71.52 C539.39,80.76 541.06,82.23 620.44,146.50 C625.88,150.90 635.78,159.00 642.46,164.50 C649.14,170.00 662.35,180.77 671.82,188.43 C681.29,196.09 688.69,202.71 688.26,203.14 C687.83,203.57 587.13,204.22 464.49,204.58 C253.01,205.20 241.01,205.33 232.05,207.09 C203.76,212.64 178.50,234.77 172.98,258.85 C171.34,266.00 172.23,277.14 175.01,284.22 C179.77,296.35 193.85,307.78 209.53,312.24 L 217.50 314.50 L 332.76 314.60 C396.16,314.65 448.28,314.95 448.59,315.26 C448.90,315.57 442.94,320.55 435.33,326.31 C427.72,332.08 415.88,341.13 409.00,346.42 C394.64,357.46 391.03,360.23 355.00,387.74 C340.42,398.87 321.30,413.51 312.50,420.26 C297.72,431.61 280.83,444.52 257.00,462.69 C237.59,477.49 205.45,502.06 181.39,520.50 C154.82,540.86 124.39,564.13 93.00,588.11 C82.28,596.30 68.78,606.62 63.00,611.04 C57.22,615.46 49.56,621.65 45.96,624.79 C27.51,640.89 16.82,660.19 13.95,682.58 C10.26,711.35 26.18,736.26 54.47,745.99 C72.55,752.21 94.11,750.28 115.49,740.54 C125.93,735.78 132.69,731.02 154.21,713.26 C164.72,704.59 176.06,695.28 179.41,692.57 C182.76,689.86 198.95,676.58 215.38,663.07 C231.82,649.56 248.07,636.25 251.50,633.50 C260.95,625.92 280.99,609.49 318.22,578.80 C336.77,563.51 352.43,551.00 353.03,551.00 C353.80,551.00 353.88,553.89 353.31,560.75 C349.80,602.98 358.73,646.86 380.54,694.50 C385.66,705.70 398.19,727.45 406.71,739.94 C442.27,792.07 490.73,834.10 549.00,863.35 C597.67,887.77 645.53,901.00 703.00,905.91 C716.86,907.10 747.45,907.15 763.00,906.01 ZM 716.50 739.42 C653.57,733.33 601.75,710.04 561.90,669.93 C505.90,613.56 487.28,538.42 511.13,465.00 C517.88,444.24 532.90,417.54 547.89,399.67 C605.81,330.62 699.21,300.39 792.50,320.50 C844.02,331.60 891.93,360.72 924.15,400.52 C958.17,442.55 974.33,495.77 968.60,546.94 C963.30,594.32 943.87,634.14 909.03,669.06 C871.63,706.54 829.55,727.69 773.76,737.06 C761.99,739.03 727.30,740.46 716.50,739.42 ZM 762.50 650.53 C789.82,645.80 815.21,634.28 836.50,616.95 C859.20,598.48 875.94,571.43 882.25,543.07 C885.12,530.14 885.32,504.48 882.65,492.20 C877.27,467.46 866.19,446.69 848.50,428.15 C825.80,404.36 797.74,389.65 763.00,383.31 C756.12,382.06 748.41,381.59 735.00,381.63 C718.99,381.67 714.80,382.03 703.90,384.32 C644.15,396.81 600.46,437.80 588.39,492.67 C586.03,503.40 586.01,527.35 588.34,539.21 C593.67,566.34 606.67,589.80 627.48,609.84 C651.97,633.43 682.22,647.27 719.67,652.02 C729.03,653.20 751.60,652.42 762.50,650.53 Z" fill="rgb(254,254,254)"/>
</g>
</svg>